<svg xmlns="http://www.w3.org/2000/svg" width="104" height="85" viewBox="0 0 104 85">
  <g id="Company_Logo" data-name="Company Logo" transform="translate(-783 -3539)">
    <rect id="Rectangle_28" data-name="Rectangle 28" width="104" height="85" transform="translate(783 3539)" fill="#fff" opacity="0"/>
    <g id="google-logo" transform="translate(799.833 3546.333)">
      <path id="Path_3" data-name="Path 3" d="M44.8,16.989A39.259,39.259,0,0,0,44.179,10H12V23.232H30.388a15.755,15.755,0,0,1-6.864,10.281v8.6H34.612C41.073,36.153,44.8,27.394,44.8,16.989Z" transform="translate(23.167 18.955)" fill="#4285f4"/>
      <path id="Path_4" data-name="Path 4" d="M32.682,41.744c9.225,0,16.959-3.044,22.612-8.262L44.2,24.878A20.542,20.542,0,0,1,13.548,14.1H2.18v8.821A34.135,34.135,0,0,0,32.682,41.744Z" transform="translate(2.485 27.589)" fill="#34a853"/>
      <path id="Path_5" data-name="Path 5" d="M16.033,28.875a19.926,19.926,0,0,1,0-12.983V7.07H4.665a33.821,33.821,0,0,0,0,30.626l8.852-6.9Z" transform="translate(0 12.784)" fill="#fbbc05"/>
      <path id="Path_6" data-name="Path 6" d="M32.682,14.6A18.642,18.642,0,0,1,45.758,19.7l9.784-9.784A32.778,32.778,0,0,0,32.682,1,34.106,34.106,0,0,0,2.18,19.854l11.368,8.821A20.4,20.4,0,0,1,32.682,14.6Z" transform="translate(2.485)" fill="#ea4335"/>
      <path id="Path_7" data-name="Path 7" d="M1,1H69.333V69.333H1Z" fill="none"/>
    </g>
  </g>
</svg>
